<svg width="138" height="85" viewBox="0 0 138 85" fill="none" xmlns="http://www.w3.org/2000/svg">
<path d="M9.81 84.32C8.22333 84.32 6.87 84.11 5.75 83.69C3.97667 83.0367 2.69333 82.2667 1.9 81.38C1.06 80.54 0.64 79.63 0.64 78.65C0.64 77.39 1.27 76.06 2.53 74.66C3.74333 73.3067 5.44667 71.9767 7.64 70.67C9.83333 69.41 12.3533 68.29 15.2 67.31C18.0467 66.3767 21.08 65.6767 24.3 65.21C25.7467 64.9767 27.3333 64.79 29.06 64.65C30.8333 64.51 32.6067 64.37 34.38 64.23C36.2 64.1367 37.8333 64.09 39.28 64.09C41.0067 61.15 42.4067 58.3733 43.48 55.76C44.6 53.1467 45.58 50.1367 46.42 46.73L46.7 45.61C45.8133 46.45 44.5533 47.4767 42.92 48.69C41.3333 49.8567 39.4667 51.0467 37.32 52.26C35.22 53.4267 32.9567 54.4067 30.53 55.2C28.15 55.9933 25.7 56.39 23.18 56.39C21.22 56.39 19.33 56.0867 17.51 55.48C15.55 54.78 13.7767 53.6133 12.19 51.98C10.65 50.3 9.41333 48.2467 8.48 45.82C7.59333 43.3467 7.15 40.6167 7.15 37.63C7.15 35.4367 7.43 33.1033 7.99 30.63C8.55 28.11 9.46 25.5433 10.72 22.93C9.27333 21.4367 8.13 19.78 7.29 17.96C6.49667 16.14 6.1 14.2733 6.1 12.36C6.1 10.68 6.45 9.02333 7.15 7.39C7.85 5.71 8.94667 4.1 10.44 2.56C10.86 2.09333 11.2567 1.86 11.63 1.86C11.8167 1.86 11.91 1.95333 11.91 2.14C11.91 2.42 11.7467 2.74666 11.42 3.12C10.3467 4.42666 9.55333 5.80333 9.04 7.25C8.52667 8.69667 8.27 10.1433 8.27 11.59C8.27 13.2233 8.57333 14.8333 9.18 16.42C9.83333 18.0067 10.7433 19.4767 11.91 20.83C12.1433 20.3633 12.3767 19.8967 12.61 19.43C12.89 18.9633 13.17 18.4967 13.45 18.03C15.69 14.39 18.42 11.2633 21.64 8.65C24.9067 6.03666 28.3833 4.03 32.07 2.63C35.7567 1.18333 39.35 0.459998 42.85 0.459998C43.4567 0.459998 44.04 0.483331 44.6 0.529997C45.2067 0.576663 45.8133 0.646664 46.42 0.739999C50.9467 1.44 54.33 2.95666 56.57 5.29C58.81 7.62333 59.93 10.2367 59.93 13.13C59.93 15.1367 59.37 17.1433 58.25 19.15C57.1767 21.1567 55.52 23 53.28 24.68C51.0867 26.36 48.3333 27.7133 45.02 28.74C41.7533 29.7667 37.95 30.3267 33.61 30.42C30.2033 30.4667 26.8433 30.0467 23.53 29.16C20.2167 28.2267 17.4167 27.0133 15.13 25.52C13.9633 27.9933 13.1 30.42 12.54 32.8C12.0267 35.1333 11.77 37.3267 11.77 39.38C11.77 42.8333 12.4933 45.7967 13.94 48.27C15.3867 50.7433 17.3933 52.4 19.96 53.24C20.7067 53.4733 21.4533 53.6367 22.2 53.73C22.9933 53.8233 23.7633 53.87 24.51 53.87C26.61 53.87 28.71 53.5667 30.81 52.96C32.9567 52.3067 34.94 51.4667 36.76 50.44C38.58 49.4133 40.12 48.34 41.38 47.22C42.6867 46.0533 43.55 44.98 43.97 44C45.0433 41.5733 46.0933 39.8933 47.12 38.96C48.1933 37.98 49.15 37.49 49.99 37.49C50.69 37.49 51.2733 37.8167 51.74 38.47C52.2533 39.0767 52.44 39.9167 52.3 40.99C51.8333 44.8633 50.76 48.62 49.08 52.26C47.4467 55.9 45.3233 59.8433 42.71 64.09C45.8833 64.1367 48.73 64.3 51.25 64.58C53.8167 64.9067 56.1267 65.3267 58.18 65.84C58.74 65.98 59.1133 66.1433 59.3 66.33C59.5333 66.5633 59.65 66.75 59.65 66.89C59.65 67.2167 59.37 67.38 58.81 67.38C58.53 67.38 58.1333 67.31 57.62 67.17C56.5467 66.89 55.1233 66.6333 53.35 66.4C51.5767 66.2133 49.6633 66.0733 47.61 65.98C45.6033 65.8867 43.6667 65.84 41.8 65.84C39.84 68.64 37.5067 71.16 34.8 73.4C32.14 75.6867 29.3167 77.6467 26.33 79.28C23.3433 80.9133 20.4033 82.15 17.51 82.99C14.6633 83.8767 12.0967 84.32 9.81 84.32ZM31.72 28.32C32.2333 28.32 32.7467 28.32 33.26 28.32C33.7733 28.2733 34.2867 28.2267 34.8 28.18C39.5133 27.7133 43.5033 26.64 46.77 24.96C50.0833 23.2333 52.58 21.2033 54.26 18.87C55.9867 16.5367 56.85 14.25 56.85 12.01C56.85 9.81666 56.01 7.88 54.33 6.2C52.6967 4.47333 50.1767 3.35333 46.77 2.84C46.3033 2.74666 45.9067 2.7 45.58 2.7C45.3 2.7 44.9033 2.7 44.39 2.7C41.3567 2.7 38.2067 3.42333 34.94 4.87C31.72 6.31666 28.64 8.34666 25.7 10.96C22.8067 13.5267 20.31 16.5133 18.21 19.92C17.6967 20.8067 17.3 21.4833 17.02 21.95C16.74 22.4167 16.4133 22.9767 16.04 23.63C17.9533 25.0767 20.2633 26.22 22.97 27.06C25.7233 27.9 28.64 28.32 31.72 28.32ZM9.74 82.15C11.56 82.15 13.7067 81.8 16.18 81.1C18.6533 80.4467 21.22 79.42 23.88 78.02C26.5867 76.6667 29.1767 74.9867 31.65 72.98C34.1233 70.9733 36.2933 68.64 38.16 65.98C35.92 66.0267 33.7033 66.12 31.51 66.26C29.3633 66.4467 27.2167 66.7267 25.07 67.1C22.7833 67.4733 20.4033 68.1033 17.93 68.99C15.5033 69.9233 13.24 70.9967 11.14 72.21C9.08667 73.4233 7.40667 74.6367 6.1 75.85C4.84 77.11 4.21 78.2533 4.21 79.28C4.21 79.8867 4.46667 80.4233 4.98 80.89C5.54 81.3567 6.40333 81.7067 7.57 81.94C8.22333 82.08 8.94667 82.15 9.74 82.15Z" fill="#FFCB74"/>
<path d="M104.88 65.21C103.153 65.21 101.38 65.0233 99.56 64.65C97.7867 64.2767 96.0133 63.7167 94.24 62.97C91.3467 61.71 89.0133 60.0533 87.24 58C85.4667 55.9933 84.1833 53.7067 83.39 51.14C82.5967 48.5733 82.2 45.89 82.2 43.09C82.2 40.15 82.55 37.21 83.25 34.27C83.9967 31.33 85.0233 28.53 86.33 25.87C87.6367 23.1633 89.1067 20.76 90.74 18.66C90.4133 17.4467 90.1333 16.0467 89.9 14.46C89.7133 12.8733 89.62 11.2633 89.62 9.63C89.62 7.15666 89.9 4.8 90.46 2.56C90.6467 1.90666 90.9733 1.58 91.44 1.58C91.7667 1.58 91.93 1.81333 91.93 2.28C91.93 2.56 91.9067 2.77 91.86 2.91C91.7667 3.61 91.6733 4.33333 91.58 5.08C91.5333 5.82667 91.51 6.59667 91.51 7.39C91.51 8.97667 91.6033 10.54 91.79 12.08C91.9767 13.62 92.1867 15.0433 92.42 16.35C95.8267 11.9167 99.7233 8.62666 104.11 6.48C108.543 4.28666 113.187 3.19 118.04 3.19C119.3 3.19 120.513 3.26 121.68 3.4C125.413 3.82 128.47 4.75333 130.85 6.2C133.23 7.6 134.98 9.32666 136.1 11.38C137.267 13.4333 137.85 15.6033 137.85 17.89C137.85 20.13 137.337 22.3467 136.31 24.54C135.283 26.7333 133.79 28.74 131.83 30.56C129.87 32.3333 127.467 33.78 124.62 34.9C121.82 35.9733 118.647 36.51 115.1 36.51C114.307 36.51 113.513 36.4867 112.72 36.44C111.927 36.3933 111.063 36.3 110.13 36.16C106.443 35.6 103.083 34.41 100.05 32.59C97.0167 30.77 94.5667 27.97 92.7 24.19C92.3267 24.6567 91.8133 25.6133 91.16 27.06C90.5067 28.46 89.8533 30.1633 89.2 32.17C88.5467 34.1767 87.9867 36.37 87.52 38.75C87.0533 41.0833 86.82 43.44 86.82 45.82C86.82 48.1067 87.1233 50.3233 87.73 52.47C88.3367 54.57 89.3867 56.4133 90.88 58C92.3733 59.6333 94.4033 60.8467 96.97 61.64C98.23 62.0133 99.5367 62.2933 100.89 62.48C102.243 62.6667 103.62 62.76 105.02 62.76C107.727 62.76 110.41 62.41 113.07 61.71C115.73 61.01 118.203 59.9833 120.49 58.63C123.523 56.8567 125.857 54.8033 127.49 52.47C129.123 50.09 130.64 47.43 132.04 44.49C132.227 44.0233 132.483 43.79 132.81 43.79C133.043 43.79 133.16 43.9533 133.16 44.28C133.16 44.5133 133.067 44.7933 132.88 45.12C131.9 47.1733 130.92 49.0633 129.94 50.79C128.96 52.47 127.817 54.0333 126.51 55.48C125.203 56.9267 123.547 58.35 121.54 59.75C119.253 61.3367 116.687 62.6433 113.84 63.67C110.993 64.6967 108.007 65.21 104.88 65.21ZM114.68 34.69C117.9 34.69 120.747 34.2233 123.22 33.29C125.693 32.31 127.77 31.05 129.45 29.51C131.177 27.9233 132.46 26.1733 133.3 24.26C134.187 22.3467 134.63 20.41 134.63 18.45C134.63 16.5367 134.187 14.7167 133.3 12.99C132.413 11.2633 131.06 9.79333 129.24 8.58C127.467 7.32 125.18 6.50333 122.38 6.13C121.353 5.99 120.327 5.92 119.3 5.92C116.127 5.92 113 6.59667 109.92 7.95C106.887 9.25666 104.017 11.1233 101.31 13.55C98.6033 15.93 96.2 18.73 94.1 21.95C95.7333 26.01 98.02 28.9967 100.96 30.91C103.947 32.8233 107.353 34.0133 111.18 34.48C112.393 34.62 113.56 34.69 114.68 34.69Z" fill="#FFCB74"/>
</svg>
